/* XPM */
static char * Collectable_xpm[] = {
"32 32 518 2",
"  	c #C0D470",
". 	c #BCCF6E",
"+ 	c #B2C467",
"@ 	c #778444",
"# 	c #544C57",
"$ 	c #48424C",
"% 	c #554F59",
"& 	c #727E41",
"* 	c #BED26F",
"= 	c #7B8846",
"- 	c #55444A",
"; 	c #554047",
"> 	c #5B484E",
", 	c #66555B",
"' 	c #5B4A52",
") 	c #62555E",
"! 	c #564C54",
"~ 	c #A0BD61",
"{ 	c #6A753C",
"] 	c #4E484C",
"^ 	c #53474B",
"/ 	c #6F545B",
"( 	c #6B4C51",
"_ 	c #674F4F",
": 	c #E8D3D2",
"< 	c #E7CED2",
"[ 	c #E7D4D8",
"} 	c #464145",
"| 	c #5B6433",
"1 	c #5E4952",
"2 	c #543C49",
"3 	c #5D4952",
"4 	c #65565D",
"5 	c #5B4C4F",
"6 	c #6C595B",
"7 	c #E5C6CB",
"8 	c #EBCDCD",
"9 	c #E4D0C7",
"0 	c #F7E5DB",
"a 	c #6D5450",
"b 	c #F2E0DE",
"c 	c #FEFFFD",
"d 	c #434F4B",
"e 	c #56602F",
"f 	c #504A4C",
"g 	c #5F5259",
"h 	c #55414A",
"i 	c #694F5C",
"j 	c #634954",
"k 	c #67525B",
"l 	c #E5D2D8",
"m 	c #E1D1D2",
"n 	c #DEC8CA",
"o 	c #FFE5E6",
"p 	c #FFD7D5",
"q 	c #FFDED4",
"r 	c #885C51",
"s 	c #FFD8D5",
"t 	c #FFDBDA",
"u 	c #F0EBE7",
"v 	c #46534C",
"w 	c #788544",
"x 	c #768343",
"y 	c #584D51",
"z 	c #625157",
"A 	c #57404A",
"B 	c #6E545F",
"C 	c #E3C7D3",
"D 	c #EAD3DD",
"E 	c #E1D0D8",
"F 	c #F1E2E5",
"G 	c #F4E4E4",
"H 	c #F8E3E2",
"I 	c #FAD8D7",
"J 	c #FFDDDE",
"K 	c #B25C5B",
"L 	c #A74345",
"M 	c #BF5A62",
"N 	c #FFD6DE",
"O 	c #FBDFDE",
"P 	c #F4F4F2",
"Q 	c #485251",
"R 	c #4F494B",
"S 	c #6A575D",
"T 	c #E8CED7",
"U 	c #EBCDD7",
"V 	c #E9CBD5",
"W 	c #FBE6EF",
"X 	c #EBDCE1",
"Y 	c #F5EFF1",
"Z 	c #E6E0E0",
"` 	c #EEE3E1",
" .	c #FEE6E4",
"..	c #FFDCDD",
"+.	c #995556",
"@.	c #CC5E61",
"#.	c #D65359",
"$.	c #DC5967",
"%.	c #C45E6B",
"&.	c #FFD8DA",
"*.	c #F8F0EE",
"=.	c #495251",
"-.	c #808E49",
";.	c #584C50",
">.	c #61484E",
",.	c #FFE4EC",
"'.	c #FCDBE4",
").	c #F8DFE5",
"!.	c #EEE3E7",
"~.	c #E6E6E4",
"{.	c #E5EEE9",
"].	c #DFE6DF",
"^.	c #F1EAE4",
"/.	c #F8E0DC",
"(.	c #FFE5E7",
"_.	c #A4585C",
":.	c #CD565A",
"<.	c #DB5057",
"[.	c #E15766",
"}.	c #C65A69",
"|.	c #FFE6EA",
"1.	c #EEE2E2",
"2.	c #F5F9FA",
"3.	c #464B4F",
"4.	c #504448",
"5.	c #6C5359",
"6.	c #EAC9D0",
"7.	c #FFE7EE",
"8.	c #FFE9EE",
"9.	c #EEE4E3",
"0.	c #E7E9E4",
"a.	c #E3EEE6",
"b.	c #E0E7DF",
"c.	c #FBE3DF",
"d.	c #FFECED",
"e.	c #985455",
"f.	c #B75051",
"g.	c #D0585A",
"h.	c #CD555F",
"i.	c #BC5C67",
"j.	c #FED4D6",
"k.	c #F1E5E5",
"l.	c #ECEDEF",
"m.	c #4D4E53",
"n.	c #9EAE5B",
"o.	c #A4C263",
"p.	c #5B5557",
"q.	c #614E50",
"r.	c #FEE4E7",
"s.	c #523237",
"t.	c #513237",
"u.	c #FFEFEF",
"v.	c #F5EBE9",
"w.	c #ECE9E4",
"x.	c #F0EDE6",
"y.	c #F3E6E0",
"z.	c #F4DFDA",
"A.	c #EFD2CE",
"B.	c #FFECE6",
"C.	c #995D53",
"D.	c #9F564F",
"E.	c #A55757",
"F.	c #FFE6E9",
"G.	c #EBD1D0",
"H.	c #ECE7E4",
"I.	c #F5F5F7",
"J.	c #F2EFF6",
"K.	c #564953",
"L.	c #4A4849",
"M.	c #564848",
"N.	c #F1D9D9",
"O.	c #543135",
"P.	c #664244",
"Q.	c #4D2F2F",
"R.	c #513937",
"S.	c #FFEDEC",
"T.	c #F8E6E4",
"U.	c #F2DFDB",
"V.	c #7D6A64",
"W.	c #FFEEE7",
"X.	c #FBD5CA",
"Y.	c #FFE2D8",
"Z.	c #FFE7E5",
"`.	c #FACECF",
" +	c #FEEAE9",
".+	c #F0EAEA",
"++	c #E8E6E9",
"@+	c #F5F0F6",
"#+	c #534650",
"$+	c #A2B35E",
"%+	c #4C4E4D",
"&+	c #675D5B",
"*+	c #F6DEDC",
"=+	c #552D2E",
"-+	c #613034",
";+	c #6B3D40",
">+	c #653B3D",
",+	c #583436",
"'+	c #553536",
")+	c #FFEFF1",
"!+	c #EEE1DB",
"~+	c #74635C",
"{+	c #825D57",
"]+	c #835653",
"^+	c #895B5D",
"/+	c #825B60",
"(+	c #7A6467",
"_+	c #E9DEE2",
":+	c #E9E3E7",
"<+	c #FBF5F9",
"[+	c #FDF6FD",
"}+	c #4D484C",
"|+	c #51514F",
"1+	c #5B4C49",
"2+	c #F7D9D7",
"3+	c #613033",
"4+	c #632C2F",
"5+	c #6C383C",
"6+	c #7A4C4E",
"7+	c #643A3C",
"8+	c #603C3E",
"9+	c #512E32",
"0+	c #513436",
"a+	c #FBE7E6",
"b+	c #FFEEED",
"c+	c #FBDCDA",
"d+	c #FFE1E1",
"e+	c #FDDADE",
"f+	c #FFE3E8",
"g+	c #F1DCE1",
"h+	c #F6EAEE",
"i+	c #F2E9EE",
"j+	c #E5DFE3",
"k+	c #EBE6EA",
"l+	c #535152",
"m+	c #9BAB59",
"n+	c #544B4C",
"o+	c #6B5152",
"p+	c #FFDADC",
"q+	c #A36B6E",
"r+	c #93585A",
"s+	c #633333",
"t+	c #4D2724",
"u+	c #6B4948",
"v+	c #563637",
"w+	c #6A464A",
"x+	c #673F47",
"y+	c #572F37",
"z+	c #543439",
"A+	c #FFECEE",
"B+	c #F0E2E2",
"C+	c #F2E3E6",
"D+	c #F2E3E8",
"E+	c #E8DBE2",
"F+	c #F1E8ED",
"G+	c #EFEAEE",
"H+	c #F7F5F6",
"I+	c #F0F0EE",
"J+	c #4C4B49",
"K+	c #625E4E",
"L+	c #67484D",
"M+	c #FFDDE0",
"N+	c #FFCAD0",
"O+	c #FFCCCF",
"P+	c #FFDBD8",
"Q+	c #FFE3E1",
"R+	c #512F2D",
"S+	c #563433",
"T+	c #714A4D",
"U+	c #60373D",
"V+	c #673C45",
"W+	c #633E45",
"X+	c #4B3333",
"Y+	c #483936",
"Z+	c #FCEEEE",
"`+	c #FAECEC",
" @	c #FAE7EB",
".@	c #F1E0E6",
"+@	c #EBE5E7",
"@@	c #E7E7E7",
"#@	c #E9E9E9",
"$@	c #EEEEEC",
"%@	c #555150",
"&@	c #808558",
"*@	c #6F5459",
"=@	c #F7D0D5",
"-@	c #5C2B2F",
";@	c #5D292D",
">@	c #FFCFD0",
",@	c #FBCBC9",
"'@	c #FFDFDE",
")@	c #FFDFDD",
"!@	c #542E2D",
"~@	c #532F2F",
"{@	c #5C3A3B",
"]@	c #725351",
"^@	c #63413F",
"/@	c #593833",
"(@	c #4F312F",
"_@	c #513333",
":@	c #FFEBEF",
"<@	c #FCE2E5",
"[@	c #F3EFEC",
"}@	c #DFE5E1",
"|@	c #E6EAE9",
"1@	c #F1F1F1",
"2@	c #FAF1F4",
"3@	c #50474C",
"4@	c #B3C56B",
"5@	c #644D53",
"6@	c #F4D4D9",
"7@	c #5D3337",
"8@	c #6B3A3E",
"9@	c #5F2D2E",
"0@	c #622E30",
"a@	c #986868",
"b@	c #8D6160",
"c@	c #FFE6E5",
"d@	c #FDDBD9",
"e@	c #4F3330",
"f@	c #583634",
"g@	c #6A3A38",
"h@	c #73403F",
"i@	c #7A4E4D",
"j@	c #673F3F",
"k@	c #5D3335",
"l@	c #4F2F30",
"m@	c #F8EDEB",
"n@	c #F8F7F3",
"o@	c #E7E6E4",
"p@	c #F0EEEF",
"q@	c #F4EBEE",
"r@	c #575155",
"s@	c #A8BA62",
"t@	c #6C595D",
"u@	c #F8DBDF",
"v@	c #542D32",
"w@	c #64373C",
"x@	c #6C3B3F",
"y@	c #633235",
"z@	c #623436",
"A@	c #5C3233",
"B@	c #F0C9CA",
"C@	c #F8D9D7",
"D@	c #FDE1DE",
"E@	c #FFD7D7",
"F@	c #67242B",
"G@	c #6F262D",
"H@	c #723B3E",
"I@	c #582C2D",
"J@	c #653E3F",
"K@	c #674748",
"L@	c #513134",
"M@	c #4E3437",
"N@	c #FEEEEF",
"O@	c #F9F3F3",
"P@	c #ECECEC",
"Q@	c #F9FDFC",
"R@	c #484C4D",
"S@	c #4C3235",
"T@	c #523235",
"U@	c #764D51",
"V@	c #5F363A",
"W@	c #60393C",
"X@	c #563234",
"Y@	c #543231",
"Z@	c #F9DAD8",
"`@	c #FCD2D4",
" #	c #97565C",
".#	c #AA676E",
"+#	c #612D2F",
"@#	c #5F3737",
"##	c #5F403D",
"$#	c #563836",
"%#	c #795054",
"&#	c #503136",
"*#	c #4F3B3D",
"=#	c #FFF5F7",
"-#	c #EAE6E7",
";#	c #4F5150",
">#	c #B0C06A",
",#	c #443232",
"'#	c #4E3538",
")#	c #694C4E",
"!#	c #5C3C3F",
"~#	c #745054",
"{#	c #643B3F",
"]#	c #542A2E",
"^#	c #582E30",
"/#	c #FDD5D5",
"(#	c #F9D3D2",
"_#	c #FFE1DF",
":#	c #FEDFDC",
"<#	c #432C26",
"[#	c #4F3631",
"}#	c #673F40",
"|#	c #683B3E",
"1#	c #643A3E",
"2#	c #7A4F56",
"3#	c #5F313C",
"4#	c #5E3D46",
"5#	c #4F4B4C",
"6#	c #B0C269",
"7#	c #503F39",
"8#	c #5F3C42",
"9#	c #663D43",
"0#	c #663940",
"a#	c #694044",
"b#	c #4C2E2C",
"c#	c #513532",
"d#	c #F3D1CF",
"e#	c #F7D1D0",
"f#	c #FFE8E6",
"g#	c #FFDEDC",
"h#	c #593634",
"i#	c #572D2E",
"j#	c #6A373C",
"k#	c #874B55",
"l#	c #814151",
"m#	c #70404C",
"n#	c #B3C36C",
"o#	c #514234",
"p#	c #59363C",
"q#	c #643B41",
"r#	c #734A50",
"s#	c #674546",
"t#	c #5C383A",
"u#	c #623135",
"v#	c #692E34",
"w#	c #98525C",
"x#	c #A6696E",
"y#	c #FCDDD8",
"z#	c #FFE3DD",
"A#	c #662B31",
"B#	c #742E39",
"C#	c #7E3E4C",
"D#	c #774953",
"E#	c #524648",
"F#	c #AEBD69",
"G#	c #5B4B3B",
"H#	c #55353A",
"I#	c #57383D",
"J#	c #684448",
"K#	c #68333B",
"L#	c #72303A",
"M#	c #742633",
"N#	c #6C2930",
"O#	c #F5D4CF",
"P#	c #F2D5CF",
"Q#	c #A76E74",
"R#	c #93545D",
"S#	c #67343B",
"T#	c #5C3C41",
"U#	c #504A4A",
"V#	c #AAB967",
"W#	c #483B35",
"X#	c #54373C",
"Y#	c #673A41",
"Z#	c #824952",
"`#	c #73363E",
" $	c #6F363C",
".$	c #5C2E2E",
"+$	c #5A312F",
"@$	c #FBCFD0",
"#$	c #F6CFD0",
"$$	c #FFEDEB",
"%$	c #F6EEEB",
"&$	c #444F49",
"*$	c #B6C76D",
"=$	c #A5B265",
"-$	c #67613F",
";$	c #562F34",
">$	c #62383C",
",$	c #673A3D",
"'$	c #734245",
")$	c #5F3133",
"!$	c #5E3233",
"~$	c #593535",
"{$	c #E7D3D2",
"]$	c #DDD8D4",
"^$	c #4E5953",
"/$	c #E8EEAA",
"($	c #ACBD6A",
"_$	c #A5B166",
":$	c #5B553A",
"<$	c #4F3131",
"[$	c #775053",
"}$	c #6A3C3F",
"|$	c #70373E",
"1$	c #733B44",
"2$	c #6D424B",
"3$	c #52373C",
"4$	c #767D54",
"5$	c #A5B565",
"6$	c #A4B166",
"7$	c #63613E",
"8$	c #553538",
"9$	c #62333B",
"0$	c #7D4754",
"a$	c #774350",
"b$	c #6A444F",
"c$	c #90995F",
"d$	c #9DAE61",
"e$	c #9CAB62",
"f$	c #58523E",
"g$	c #624349",
"h$	c #774755",
"i$	c #734A58",
"j$	c #767D5E",
"k$	c #909D5C",
"l$	c #8F985F",
"m$	c #5C3B46",
"n$	c #553741",
"o$	c #51534D",
"p$	c #A3B45F",
"q$	c #514C50",
"r$	c #030106",
"s$	c #BDD16F",
"                                    .                           ",
"                              + @ # $ % &                       ",
"                        * = - ; > , ' ) !                       ",
"                  ~ { ] ] ^ / ( _ : < [ } @                     ",
"              | 1 2 3 4 5 6 7 8 9 0 a b c d                     ",
"        e f g h i j k l m n o p q r s t u v w                   ",
"      x y z A B C D E F G H I J K L M N O P Q                   ",
"      R S T U V W X Y Z `  ...+.@.#.$.%.&.*.=.-.                ",
"      ;.>.,.'.).!.~.{.].^./.(._.:.<.[.}.|.1.2.3.                ",
"      4.5.6.7.8.9.0.a.b.^.c.d.e.f.g.h.i.j.k.l.m.n.  o.  o.      ",
"      p.q.r.s.t.u.v.w.x.y.z.A.B.C.D.E.F.G.H.I.J.K.    o.        ",
"      L.M.N.O.P.Q.R.S.T.U.U.V.W.X.Y.Z.`. +.+++@+#+$+            ",
"      %+&+*+=+-+;+>+,+'+)+S.!+~+{+]+^+/+(+_+:+<+[+}+            ",
"      |+1+2+3+4+5+6+7+8+9+0+a+b+c+d+e+f+g+h+i+j+k+l+m+          ",
"      n+o+p+q+r+s+t+u+v+w+x+y+z+A+u.B+C+D+E+F+G+H+I+J+          ",
"      K+L+M+N+O+P+Q+R+S+T+U+V+W+X+Y+Z+`+ @.@+@@@#@$@%@m+        ",
"      &@*@=@-@;@>@,@'@)@!@~@{@]@^@/@(@_@:@<@[@}@|@1@2@3@        ",
"      4@5@6@7@8@9@0@a@b@c@d@e@f@g@h@i@j@k@l@m@n@o@p@q@r@s@      ",
"        t@u@v@w@x@y@z@A@B@C@D@E@F@G@H@I@J@K@L@M@N@O@P@Q@R@      ",
"            S@T@P.U@V@W@X@Y@Z@`@ #.#+#@###$#%#U+&#*#=#-#;#      ",
"              >#,#'#)#!#~#{#]#^#/#(#_#:#<#[#}#|#1#2#3#4#5#      ",
"                  6#7#S@8#9#0#a#b#c#d#e#f#g#h#i#j#k#l#m#n+      ",
"                      n#o#p#q#r#s#t#u#v#w#x#y#z#A#B#C#D#E#      ",
"                          F#G#H#I#J#K#L#M#N#O#P#Q#R#S#T#U#      ",
"                              V#W#X#Y#Z#`# $.$+$@$#$$$%$&$      ",
"                                *$=$-$;$>$,$'$)$!$~${$]$^$      ",
"        /$  /$                      ($_$:$<$[$}$|$1$2$3$4$      ",
"          /$                            5$6$7$8$9$0$a$b$c$      ",
"                                            d$e$f$g$h$i$j$      ",
"                                              * k$l$m$n$o$      ",
"                                                  p$q$}+r$      ",
"                                                      s$        "};
