/* XPM */
static char * Exit_xpm[] = {
"32 32 578 2",
"  	c #C0D470",
". 	c #A4AA63",
"+ 	c #92685C",
"@ 	c #8F6453",
"# 	c #B28872",
"$ 	c #AB836A",
"% 	c #AB826C",
"& 	c #B18874",
"* 	c #916354",
"= 	c #90685C",
"- 	c #BED270",
"; 	c #BBCE6F",
"> 	c #BDD16F",
", 	c #9BAA5E",
"' 	c #605946",
") 	c #8C7764",
"! 	c #987C67",
"~ 	c #B5957C",
"{ 	c #C4A787",
"] 	c #CCB48E",
"^ 	c #CEB88F",
"/ 	c #CEB891",
"( 	c #CCB490",
"_ 	c #C5A689",
": 	c #B5957E",
"< 	c #987B69",
"[ 	c #8A7766",
"} 	c #605947",
"| 	c #A9B865",
"1 	c #86755D",
"2 	c #856F58",
"3 	c #A28A70",
"4 	c #A68D6F",
"5 	c #CBB190",
"6 	c #C4AE85",
"7 	c #C0B480",
"8 	c #B6B678",
"9 	c #A3AF67",
"0 	c #97A95D",
"a 	c #97A95F",
"b 	c #A3AE69",
"c 	c #B7B57A",
"d 	c #C0B482",
"e 	c #A78C71",
"f 	c #BCCF70",
"g 	c #8C8164",
"h 	c #9A8268",
"i 	c #B99E81",
"j 	c #BBA17E",
"k 	c #CEB78E",
"l 	c #C1AF81",
"m 	c #B6A974",
"n 	c #AEA86A",
"o 	c #9EA45C",
"p 	c #91A351",
"q 	c #A7C46A",
"r 	c #A3C668",
"s 	c #A3C66A",
"t 	c #A7C36C",
"u 	c #91A252",
"v 	c #AEA86C",
"w 	c #A6B168",
"x 	c #C3B694",
"y 	c #BCAF85",
"z 	c #B6B07E",
"A 	c #B5B67C",
"B 	c #9FA867",
"C 	c #99A962",
"D 	c #9BAB60",
"E 	c #B9CC7B",
"F 	c #ABC16C",
"G 	c #8DA64B",
"H 	c #A4C164",
"I 	c #95B554",
"J 	c #BCAE87",
"K 	c #A4B266",
"L 	c #A6A376",
"M 	c #A8A771",
"N 	c #97A05F",
"O 	c #A0B268",
"P 	c #A9C674",
"Q 	c #8DAF58",
"R 	c #8DAE55",
"S 	c #A8C970",
"T 	c #9BB95F",
"U 	c #8AA74B",
"V 	c #A6C366",
"W 	c #A7C668",
"X 	c #A8C568",
"Y 	c #9BBA5D",
"Z 	c #A8C96E",
"` 	c #717E46",
" .	c #94A362",
"..	c #92A75C",
"+.	c #A6C26E",
"@.	c #ADD076",
"#.	c #8EB356",
"$.	c #96B95F",
"%.	c #B3D47B",
"&.	c #A1BF69",
"*.	c #8EAC56",
"=.	c #9DBB65",
"-.	c #97B861",
";.	c #99B75F",
">.	c #9DBB63",
",.	c #8EAC54",
"'.	c #A1BF67",
").	c #B3D479",
"!.	c #96B95D",
"~.	c #707F46",
"{.	c #93A85A",
"].	c #96AD67",
"^.	c #90AB5C",
"/.	c #9EBF68",
"(.	c #ACCF75",
"_.	c #90B156",
":.	c #8FAB56",
"<.	c #B2C977",
"[.	c #A3B667",
"}.	c #94A65A",
"|.	c #AFC175",
"1.	c #A5B76B",
"2.	c #AFC273",
"3.	c #94A758",
"4.	c #A3B665",
"5.	c #B2CA76",
"6.	c #8FAB54",
"7.	c #8FAC5C",
"8.	c #9CB260",
"9.	c #8DA865",
"0.	c #91AD60",
"a.	c #9DBA68",
"b.	c #ADC975",
"c.	c #9EB461",
"d.	c #A1AC60",
"e.	c #C5C680",
"f.	c #AAA666",
"g.	c #9D9759",
"h.	c #A7A165",
"i.	c #B3AD71",
"j.	c #A7A163",
"k.	c #9D9858",
"l.	c #AAA764",
"m.	c #C5C77E",
"n.	c #A1AC5E",
"o.	c #8FAE62",
"p.	c #9CB261",
"q.	c #ABBF67",
"r.	c #93A969",
"s.	c #91A75F",
"t.	c #ADC277",
"u.	c #B5C378",
"v.	c #989E58",
"w.	c #A29A5B",
"x.	c #B7A66E",
"y.	c #CBB583",
"z.	c #D8C092",
"A.	c #EBD4A8",
"B.	c #F1DAAE",
"C.	c #EBD5A6",
"D.	c #D8C090",
"E.	c #CBB681",
"F.	c #90A761",
"G.	c #93A96B",
"H.	c #A4C263",
"I.	c #B5C76B",
"J.	c #97A069",
"K.	c #979D5F",
"L.	c #A1A364",
"M.	c #B1AD70",
"N.	c #B8AB74",
"O.	c #DFC797",
"P.	c #EDCDA4",
"Q.	c #F3D1AE",
"R.	c #EECBAD",
"S.	c #E0C1A4",
"T.	c #DBBDA1",
"U.	c #EECBAB",
"V.	c #959D61",
"W.	c #9CB760",
"X.	c #8A8B5F",
"Y.	c #9E9A6A",
"Z.	c #C7C08A",
"`.	c #CCC18B",
" +	c #E9D7A5",
".+	c #EFD7A9",
"++	c #ECCAA5",
"@+	c #ECC5A6",
"#+	c #D7AD95",
"$+	c #D2A995",
"%+	c #AE8976",
"&+	c #A5826F",
"*+	c #EFD7AB",
"=+	c #CCC08C",
"-+	c #C7C08C",
";+	c #A8B271",
">+	c #D2C9A0",
",+	c #E3D2A6",
"'+	c #EFDDAF",
")+	c #E3CD9E",
"!+	c #D3BB8F",
"~+	c #DBBF98",
"{+	c #BD9A7C",
"]+	c #BE967D",
"^+	c #9C715E",
"/+	c #9A7060",
"(+	c #865F50",
"_+	c #886353",
":+	c #BD9A7A",
"<+	c #E3CCA0",
"[+	c #A3AA6B",
"}+	c #D8C4A1",
"|+	c #E4C6A2",
"1+	c #D1AF8A",
"2+	c #D7B58F",
"3+	c #B1916B",
"4+	c #AA8865",
"5+	c #8A6646",
"6+	c #8F674D",
"7+	c #8F654D",
"8+	c #936953",
"9+	c #926754",
"0+	c #8E6350",
"a+	c #956853",
"b+	c #B1916A",
"c+	c #D0B089",
"d+	c #A3AA69",
"e+	c #9B9F64",
"f+	c #BA9781",
"g+	c #C1957C",
"h+	c #AA7B5F",
"i+	c #A97B5A",
"j+	c #A87D5B",
"k+	c #AA825E",
"l+	c #AE8663",
"m+	c #AF8462",
"n+	c #AF8261",
"o+	c #AA7D5C",
"p+	c #B08260",
"q+	c #B28462",
"r+	c #B28463",
"s+	c #B08261",
"t+	c #AB7D5C",
"u+	c #A87D5A",
"v+	c #AA7B5D",
"w+	c #C2947C",
"x+	c #9B9F62",
"y+	c #B8C76C",
"z+	c #916451",
"A+	c #BF8C71",
"B+	c #C79273",
"C+	c #CA9778",
"D+	c #C09270",
"E+	c #C69A75",
"F+	c #C0946D",
"G+	c #C1946D",
"H+	c #C99973",
"I+	c #C4956B",
"J+	c #C5966C",
"K+	c #C5956D",
"L+	c #C4946C",
"M+	c #C79A73",
"N+	c #8F6451",
"O+	c #A2A860",
"P+	c #AF8064",
"Q+	c #BC8365",
"R+	c #BA8267",
"S+	c #B48164",
"T+	c #B78C62",
"U+	c #B58A5F",
"V+	c #B2855E",
"W+	c #B88862",
"X+	c #B7885E",
"Y+	c #B78B5E",
"Z+	c #B68B5E",
"`+	c #B4895E",
" @	c #B68960",
".@	c #B4845C",
"+@	c #BA8A64",
"@@	c #B78062",
"#@	c #BB8267",
"$@	c #AE8164",
"%@	c #A2A760",
"&@	c #A2AB62",
"*@	c #BA9175",
"=@	c #CD9879",
"-@	c #C79179",
";@	c #BF8D72",
">@	c #C89E76",
",@	c #C0996E",
"'@	c #C79B76",
")@	c #CC9E7C",
"!@	c #C59775",
"~@	c #C0946F",
"{@	c #BD9571",
"]@	c #C19A73",
"^@	c #CB9F7A",
"/@	c #C79B74",
"(@	c #C3986E",
"_@	c #CA9D76",
":@	c #C28C72",
"<@	c #C89079",
"[@	c #B79275",
"}@	c #A1AC63",
"|@	c #9AA55F",
"1@	c #AB8B74",
"2@	c #AC7F68",
"3@	c #865942",
"4@	c #895F46",
"5@	c #A5835E",
"6@	c #B2906A",
"7@	c #B7916D",
"8@	c #AE8569",
"9@	c #AC7F6C",
"0@	c #AF8172",
"a@	c #AC8274",
"b@	c #A9806C",
"c@	c #AD8669",
"d@	c #B39068",
"e@	c #A8825D",
"f@	c #8C5E46",
"g@	c #885842",
"h@	c #AC8067",
"i@	c #AA8C72",
"j@	c #9EAB61",
"k@	c #929B5D",
"l@	c #A98C7A",
"m@	c #906656",
"n@	c #926756",
"o@	c #876248",
"p@	c #8C6B4A",
"q@	c #B38F6D",
"r@	c #986E56",
"s@	c #8E5D56",
"t@	c #8B595A",
"u@	c #885A5A",
"v@	c #8A5F56",
"w@	c #976E58",
"x@	c #8E6A48",
"y@	c #8A604A",
"z@	c #946656",
"A@	c #906753",
"B@	c #A78F77",
"C@	c #9FAD63",
"D@	c #8A915F",
"E@	c #AC8E84",
"F@	c #936660",
"G@	c #986A5D",
"H@	c #9E7360",
"I@	c #926F51",
"J@	c #BE9C79",
"K@	c #AD8665",
"L@	c #8A5C45",
"M@	c #925D59",
"N@	c #965D63",
"O@	c #955E63",
"P@	c #8F5E59",
"Q@	c #895C49",
"R@	c #AE8567",
"S@	c #BF9C76",
"T@	c #956E4D",
"U@	c #A07263",
"V@	c #986961",
"W@	c #92685A",
"X@	c #AB907F",
"Y@	c #A0AD66",
"Z@	c #7D8154",
"`@	c #A8877E",
" #	c #A87C73",
".#	c #D3A494",
"+#	c #CFA189",
"@#	c #9E7A5A",
"##	c #AE8A6A",
"$#	c #9C7357",
"%#	c #895A48",
"&#	c #A06665",
"*#	c #9B5E65",
"=#	c #9A5F63",
"-#	c #9D6765",
";#	c #89594D",
">#	c #9C725A",
",#	c #B08A65",
"'#	c #A17956",
")#	c #D09F90",
"!#	c #D4A299",
"~#	c #A87D6D",
"{#	c #A68977",
"]#	c #9FAA62",
"^#	c #7E7F52",
"/#	c #AF8E7D",
"(#	c #C39480",
"_#	c #C59474",
":#	c #D1A17D",
"<#	c #C09875",
"[#	c #C0997C",
"}#	c #A77C6B",
"|#	c #89594F",
"1#	c #9C6261",
"2#	c #965A5C",
"3#	c #965A5A",
"4#	c #9A6261",
"5#	c #895854",
"6#	c #A77B6E",
"7#	c #C19976",
"8#	c #C29870",
"9#	c #D19F84",
"0#	c #C6927C",
"a#	c #C3957B",
"b#	c #AE9076",
"c#	c #A0AC63",
"d#	c #818357",
"e#	c #AA8A7F",
"f#	c #BC8E7F",
"g#	c #C29171",
"h#	c #BF8E6D",
"i#	c #BC947B",
"j#	c #AF8A7A",
"k#	c #A47D76",
"l#	c #8A5F59",
"m#	c #A16F66",
"n#	c #A97367",
"o#	c #A97466",
"p#	c #8A5E5F",
"q#	c #A47C7A",
"r#	c #B08A75",
"s#	c #BD9476",
"t#	c #BF8D74",
"u#	c #C29079",
"v#	c #BC8F78",
"w#	c #AA8B77",
"x#	c #8B965C",
"y#	c #785A62",
"z#	c #80555C",
"A#	c #936452",
"B#	c #7B5457",
"C#	c #7A5964",
"D#	c #795A60",
"E#	c #8D6C65",
"F#	c #B69176",
"G#	c #BC926A",
"H#	c #BC9268",
"I#	c #B89174",
"J#	c #8D6B6C",
"K#	c #795964",
"L#	c #7A5A5D",
"M#	c #7B5552",
"N#	c #895A50",
"O#	c #936359",
"P#	c #805755",
"Q#	c #785C5B",
"R#	c #A9B968",
"S#	c #5C4359",
"T#	c #7A5368",
"U#	c #B78B82",
"V#	c #976C65",
"W#	c #67405B",
"X#	c #57375C",
"Y#	c #5C4057",
"Z#	c #866A69",
"`#	c #B69574",
" $	c #B79361",
".$	c #B7935F",
"+$	c #B79474",
"@$	c #86696E",
"#$	c #5C4059",
"$$	c #573955",
"%$	c #654256",
"&$	c #956B6C",
"*$	c #B68A87",
"=$	c #7A5463",
"-$	c #5C4452",
";$	c #E8EEAA",
">$	c #8A9761",
",$	c #4B3753",
"'$	c #7C5977",
")$	c #B38C85",
"!$	c #906868",
"~$	c #5B3564",
"{$	c #533470",
"]$	c #573D64",
"^$	c #856B76",
"/$	c #B4917B",
"($	c #B79268",
"_$	c #B89166",
":$	c #B59179",
"<$	c #86697B",
"[$	c #573C67",
"}$	c #53356B",
"|$	c #5A3761",
"1$	c #8F686D",
"2$	c #B28C8B",
"3$	c #7C5A73",
"4$	c #4B384E",
"5$	c #B6C96E",
"6$	c #C7CE96",
"7$	c #493F5A",
"8$	c #765D7D",
"9$	c #B39492",
"0$	c #8F6F74",
"a$	c #5B3A71",
"b$	c #593C7E",
"c$	c #553E68",
"d$	c #836976",
"e$	c #B28D7A",
"f$	c #BF9471",
"g$	c #B38D7A",
"h$	c #836879",
"i$	c #553E6A",
"j$	c #573D7C",
"k$	c #583C6D",
"l$	c #8E6E79",
"m$	c #B29496",
"n$	c #775D7A",
"o$	c #4B3F57",
"p$	c #ADC16C",
"q$	c #686E63",
"r$	c #5E516B",
"s$	c #947F84",
"t$	c #7C6471",
"u$	c #51396B",
"v$	c #4F3A72",
"w$	c #503D5D",
"x$	c #846B71",
"y$	c #B78E7A",
"z$	c #C08E6B",
"A$	c #C28D6B",
"B$	c #BA8D7A",
"C$	c #856A73",
"D$	c #4E3D5F",
"E$	c #4E3C70",
"F$	c #4E3B69",
"G$	c #7B6474",
"H$	c #938086",
"I$	c #5F516A",
"J$	c #929F68",
"K$	c #A3B66B",
"L$	c #707B5D",
"M$	c #696B58",
"N$	c #6D6860",
"O$	c #504764",
"P$	c #4F4567",
"Q$	c #4F4454",
"R$	c #86716E",
"S$	c #BE947E",
"T$	c #C28D6D",
"U$	c #C48B6E",
"V$	c #C1927E",
"W$	c #887070",
"X$	c #4D4455",
"Y$	c #4C4767",
"Z$	c #4D4964",
"`$	c #6B6862",
" %	c #717359",
".%	c #96A565",
"+%	c #8BA15D",
"@%	c #86975C",
"#%	c #758362",
"$%	c #6D7B62",
"%%	c #535E5A",
"&%	c #50534C",
"*%	c #7B6D62",
"=%	c #B6907B",
"-%	c #C28A73",
";%	c #B98E7B",
">%	c #4E534D",
",%	c #505F5C",
"'%	c #6B7C62",
")%	c #9CAD68",
"!%	c #A8BA68",
"~%	c #B3C76B",
"{%	c #5B6453",
"]%	c #736A59",
"^%	c #A4806A",
"/%	c #AA7660",
"(%	c #AC7560",
"_%	c #A77E6A",
":%	c #756959",
"<%	c #596453",
"                      . + @ # $ % & * = . - ; >                 ",
"                , ' ) ! ~ { ] ^ / ( _ : < [ } ,                 ",
"          | 1 2 3 4 5 6 7 8 9 0 a b c d 6 5 e 3 2 1 |           ",
"      f g h i j k l m n o p q r s t u o v m l k j i h g f       ",
"      w x y z A B C D E F G H I I H G F E D C B A z J x w       ",
"      K L M N O P Q R S T U V W X V U Y Z R Q P O N M L K       ",
"        `  ...+.@.#.$.%.&.*.=.-.;.>.,.'.).!.#.@.+... .~.        ",
"        {.].^./.(._.:.<.[.}.|.1.1.2.3.4.5.6._.(./.7.].{.        ",
"        8.9.0.a.b.c.d.e.f.g.h.i.i.j.k.l.m.n.c.b.a.o.9.p.        ",
"        q.r.s.t.u.v.w.x.y.z.A.B.B.C.D.E.x.w.v.u.t.F.G.q.H.      ",
"      H.I.J.K.L.M.N.O.P.Q.R.S.T.T.S.U.Q.P.O.N.M.L.V.J.W.        ",
"        X.Y.Z.`. +.+++@+#+$+%+&+&+%+$+#+@+++*+ +=+-+Y.X.        ",
"      ;+>+,+'+)+!+~+{+]+^+/+(+_+_+(+/+^+]+:+~+!+<+'+,+>+;+      ",
"      [+}+|+1+2+3+4+5+6+7+8+9+0+0+9+a+7+6+5+4+b+2+c+|+}+d+      ",
"      e+f+g+h+i+j+k+l+m+n+o+p+q+r+s+t+n+m+l+k+u+i+v+w+f+x+      ",
"        y+z+A+B+C+D+E+F+G+H+I+J+K+L+M+G+F+E+D+C+B+A+N+y+        ",
"          O+P+Q+R+S+T+U+V+W+X+Y+Z+`+ @.@ @+@@@#@Q+$@%@          ",
"          &@*@=@-@;@>@,@'@)@!@~@{@]@^@/@(@_@:@<@=@[@}@          ",
"          |@1@2@3@4@5@6@7@8@9@0@a@b@c@7@d@e@f@g@h@i@j@          ",
"          k@l@m@n@o@p@3+q@r@s@t@u@v@w@q@6@x@y@z@A@B@C@          ",
"          D@E@F@G@H@I@J@K@L@M@N@O@P@Q@R@S@T@U@V@W@X@Y@          ",
"          Z@`@ #.#+#@###$#%#&#*#=#-#;#>#,#'#)#!#~#{#]#          ",
"          ^#/#(#_#:#<#[#}#|#1#2#3#4#5#6#7#8#9#0#a#b#c#          ",
"          d#e#f#g#h#i#j#k#l#m#n#o#m#p#q#r#s#t#u#v#w#Y@          ",
"          x#y#z#A#Q@B#C#D#E#F#G#H#I#J#K#L#M#N#O#P#Q#            ",
"          R#S#T#U#V#W#X#Y#Z#`# $.$+$@$#$$$%$&$*$=$-$            ",
"        ;$>$,$'$)$!$~${$]$^$/$($_$:$<$[$}$|$1$2$3$4$5$          ",
"          6$7$8$9$0$a$b$c$d$e$f$~@g$h$i$j$k$l$m$n$o$            ",
"          p$q$r$s$t$u$v$w$x$y$z$A$B$C$D$E$F$G$H$I$J$            ",
"            K$L$M$N$O$P$Q$R$S$T$U$V$W$X$Y$Z$`$ %.%              ",
"              +%@%#%$%%%&%*%=%A+-%;%*%>%,%'%)%!%~%              ",
"                        {%]%^%/%(%_%:%<%                        "};
