/* XPM */
static char * block pond exit_32*32_xpm[] = {
"32 32 609 2",
"  	c #C0D470",
". 	c #AFC065",
"+ 	c #9CA759",
"@ 	c #B7CA6B",
"# 	c #BACD6C",
"$ 	c #9DA95A",
"% 	c #ABBB63",
"& 	c #BFD370",
"* 	c #A7B660",
"= 	c #A0AC5C",
"- 	c #BCD06E",
"; 	c #BFD470",
"> 	c #B6D16A",
", 	c #B4C769",
"' 	c #9AA658",
") 	c #B2C467",
"! 	c #BDD16E",
"~ 	c #A1AE5D",
"{ 	c #A6B460",
"] 	c #BFD36F",
"^ 	c #ADBE64",
"/ 	c #9CA859",
"( 	c #B9CC6C",
"_ 	c #9F8C50",
": 	c #C79058",
"< 	c #989A52",
"[ 	c #9EA658",
"} 	c #C59259",
"| 	c #A0814A",
"1 	c #B7CB6B",
"2 	c #ABC263",
"3 	c #AC8951",
"4 	c #BC8853",
"5 	c #8EA550",
"6 	c #A9C763",
"7 	c #93C356",
"8 	c #99C459",
"9 	c #99C15A",
"0 	c #868545",
"a 	c #C9945A",
"b 	c #91894B",
"c 	c #B9D26C",
"d 	c #A5B35E",
"e 	c #B78350",
"f 	c #B08953",
"g 	c #AEBF65",
"h 	c #9D834B",
"i 	c #C79359",
"j 	c #9CA157",
"k 	c #B5C869",
"l 	c #90713F",
"m 	c #BC7645",
"n 	c #847B43",
"o 	c #AABC63",
"p 	c #ABBD64",
"q 	c #848547",
"r 	c #BA7745",
"s 	c #94653A",
"t 	c #789949",
"u 	c #759A45",
"v 	c #9D693C",
"w 	c #BE7746",
"x 	c #8C6036",
"y 	c #6E5B2F",
"z 	c #765C33",
"A 	c #755B33",
"B 	c #6F5A2D",
"C 	c #A1663B",
"D 	c #C07947",
"E 	c #7B6337",
"F 	c #7CA94A",
"G 	c #728B40",
"H 	c #B16F41",
"I 	c #A26A3F",
"J 	c #94A255",
"K 	c #ADBF65",
"L 	c #A0B05D",
"M 	c #91673B",
"N 	c #BA7644",
"O 	c #8F8E4C",
"P 	c #8A6C3B",
"Q 	c #B87644",
"R 	c #9D6439",
"S 	c #A07143",
"T 	c #A17244",
"U 	c #A26C3F",
"V 	c #B56F42",
"W 	c #A7663A",
"X 	c #9B693F",
"Y 	c #9E6D42",
"Z 	c #AD6B3F",
"` 	c #B56F41",
" .	c #7F5847",
"..	c #544F53",
"+.	c #564F53",
"@.	c #554F53",
"#.	c #584E50",
"$.	c #9B6241",
"%.	c #B77143",
"&.	c #A6693E",
"*.	c #9D6E43",
"=.	c #9A643B",
"-.	c #B16C3F",
";.	c #AF6C3F",
">.	c #9F6E41",
",.	c #A17144",
"'.	c #9E6D41",
").	c #A5673A",
"!.	c #B37242",
"~.	c #8C8E4B",
"{.	c #866B38",
"].	c #C1844B",
"^.	c #86522A",
"/.	c #835C32",
"(.	c #845C31",
"_.	c #85532B",
":.	c #A96437",
"<.	c #95572E",
"[.	c #7B4D36",
"}.	c #7E4E36",
"|.	c #9B5B30",
"1.	c #AB6538",
"2.	c #824F34",
"3.	c #6A473C",
"4.	c #6E4A3D",
"5.	c #6E4B3E",
"6.	c #6C4739",
"7.	c #925632",
"8.	c #AD6739",
"9.	c #8D532D",
"0.	c #7D4F3A",
"a.	c #7E4D32",
"b.	c #A46134",
"c.	c #9D5C31",
"d.	c #7D512B",
"e.	c #815D2F",
"f.	c #80582E",
"g.	c #995E32",
"h.	c #BC8049",
"i.	c #898B49",
"j.	c #87743D",
"k.	c #B97E48",
"l.	c #848646",
"m.	c #ADC264",
"n.	c #95B958",
"o.	c #536D45",
"p.	c #905128",
"q.	c #754E40",
"r.	c #6C7386",
"s.	c #606675",
"t.	c #7B4931",
"u.	c #8F5229",
"v.	c #645D69",
"w.	c #636475",
"x.	c #6D6E80",
"y.	c #797B8E",
"z.	c #5F6071",
"A.	c #6C5252",
"B.	c #95552A",
"C.	c #644C4B",
"D.	c #6D7486",
"E.	c #5E606D",
"F.	c #8A4F28",
"G.	c #7F4B31",
"H.	c #637974",
"I.	c #6DA54B",
"J.	c #93B555",
"K.	c #866C3A",
"L.	c #B67B46",
"M.	c #8F954E",
"N.	c #9DA558",
"O.	c #997343",
"P.	c #A8BC61",
"Q.	c #B0D066",
"R.	c #78A168",
"S.	c #647280",
"T.	c #615D6A",
"U.	c #797C8E",
"V.	c #818EB1",
"W.	c #677BAB",
"X.	c #5B668B",
"Y.	c #505C8D",
"Z.	c #3F67BD",
"`.	c #3E69C0",
" +	c #4375C8",
".+	c #4671C8",
"++	c #3F73C5",
"@+	c #3D6EB4",
"#+	c #465386",
"$+	c #6374A4",
"%+	c #657BAB",
"&+	c #6E80AA",
"*+	c #717081",
"=+	c #6C6C7C",
"-+	c #727991",
";+	c #638774",
">+	c #7FBE51",
",+	c #8E9D4D",
"'+	c #977444",
")+	c #AEC065",
"!+	c #A29353",
"~+	c #CC945A",
"{+	c #979E52",
"]+	c #81B257",
"^+	c #788892",
"/+	c #838AA2",
"(+	c #7988B0",
"_+	c #5A7DC6",
":+	c #3E77CB",
"<+	c #2863C8",
"[+	c #286ECB",
"}+	c #2675C8",
"|+	c #2483CD",
"1+	c #247ECF",
"2+	c #2482CD",
"3+	c #247ACA",
"4+	c #247CCF",
"5+	c #2395DB",
"6+	c #2575CE",
"7+	c #2869CA",
"8+	c #277ED2",
"9+	c #2E6DCA",
"0+	c #4E81CD",
"a+	c #6A83BB",
"b+	c #828BA8",
"c+	c #8188A1",
"d+	c #558D61",
"e+	c #948545",
"f+	c #CC965C",
"g+	c #9FA659",
"h+	c #927340",
"i+	c #BF7A47",
"j+	c #7E8140",
"k+	c #5A8B6C",
"l+	c #767D93",
"m+	c #7487B5",
"n+	c #3674CC",
"o+	c #238ED0",
"p+	c #21B1D2",
"q+	c #2590D6",
"r+	c #2683D4",
"s+	c #24A1D6",
"t+	c #23AAD9",
"u+	c #249AD8",
"v+	c #23A9D8",
"w+	c #23A9D9",
"x+	c #249BD9",
"y+	c #2498DC",
"z+	c #2498D3",
"A+	c #23B0D1",
"B+	c #249CD5",
"C+	c #258AD6",
"D+	c #238BD7",
"E+	c #2867C8",
"F+	c #597BC4",
"G+	c #7B839E",
"H+	c #61787C",
"I+	c #8C6438",
"J+	c #BD7A47",
"K+	c #8F8F4C",
"L+	c #B47242",
"M+	c #626937",
"N+	c #758191",
"O+	c #7886AD",
"P+	c #3978C8",
"Q+	c #22A0D0",
"R+	c #24A2DA",
"S+	c #24A4DC",
"T+	c #249FDE",
"U+	c #249DDE",
"V+	c #23ACD9",
"W+	c #23ADD8",
"X+	c #23B0D7",
"Y+	c #249EDE",
"Z+	c #24A2DE",
"`+	c #23A6DB",
" @	c #22B4D5",
".@	c #23A8D9",
"+@	c #2594D9",
"@@	c #2588D4",
"#@	c #2875CE",
"$@	c #5B7BB9",
"%@	c #7A8099",
"&@	c #825939",
"*@	c #B37141",
"=@	c #8D8E4B",
"-@	c #866B39",
";@	c #BF824B",
">@	c #595943",
",@	c #6B7896",
"'@	c #3F80C9",
")@	c #22A2D3",
"!@	c #23ACDA",
"~@	c #24A0DE",
"{@	c #24A5DC",
"]@	c #24A2DD",
"^@	c #23B0D4",
"/@	c #2498D5",
"(@	c #2C7CD2",
"_@	c #536B9F",
":@	c #80563D",
"<@	c #BD8049",
"[@	c #7D8940",
"}@	c #B7CA6A",
"|@	c #826F38",
"1@	c #BA7F48",
"2@	c #605958",
"3@	c #688BAE",
"4@	c #25A4DA",
"5@	c #24A0DD",
"6@	c #23A7DB",
"7@	c #23AFD8",
"8@	c #21A2D9",
"9@	c #4174B6",
"0@	c #7E5746",
"a@	c #B77C47",
"b@	c #798E3F",
"c@	c #8FA14F",
"d@	c #956D40",
"e@	c #666F7D",
"f@	c #5099C8",
"g@	c #23A6DC",
"h@	c #23A9DA",
"i@	c #22B7D4",
"j@	c #22B0D7",
"k@	c #3098CE",
"l@	c #6C697D",
"m@	c #926B42",
"n@	c #9AB759",
"o@	c #BBCE6D",
"p@	c #9C9550",
"q@	c #C79159",
"r@	c #6C727B",
"s@	c #339FDA",
"t@	c #22B2D6",
"u@	c #23B2D6",
"v@	c #23A8DA",
"w@	c #21A9D0",
"x@	c #867678",
"y@	c #C7935A",
"z@	c #90A251",
"A@	c #927540",
"B@	c #C37E4A",
"C@	c #6A6268",
"D@	c #279EDC",
"E@	c #24A1DD",
"F@	c #24A5DB",
"G@	c #24A3DC",
"H@	c #23AFD7",
"I@	c #2096D0",
"J@	c #8C6253",
"K@	c #C17F4A",
"L@	c #808B43",
"M@	c #8B6D3B",
"N@	c #B37040",
"O@	c #66646A",
"P@	c #2AA0DE",
"Q@	c #22B5D5",
"R@	c #23AED8",
"S@	c #23B1D6",
"T@	c #2095D0",
"U@	c #825D54",
"V@	c #B16F3F",
"W@	c #72833B",
"X@	c #856B37",
"Y@	c #5F5C64",
"Z@	c #289EDC",
"`@	c #2094D0",
" #	c #7E5B50",
".#	c #70813A",
"+#	c #BDD46E",
"@#	c #B6C96A",
"##	c #816C36",
"$#	c #5A5B61",
"%#	c #259CDA",
"&#	c #2197D3",
"*#	c #7A594F",
"=#	c #B97D47",
"-#	c #7A8B40",
";#	c #BED46F",
">#	c #98A054",
",#	c #986F41",
"'#	c #5C7B8F",
")#	c #29A0DE",
"!#	c #22B6D4",
"~#	c #229EDE",
"{#	c #5B7592",
"]#	c #956D43",
"^#	c #7AB046",
"/#	c #BCD36D",
"(#	c #BCD06D",
"_#	c #97974E",
":#	c #C08D56",
"<#	c #657381",
"[#	c #219CD9",
"}#	c #7E757D",
"|#	c #C08F58",
"1#	c #8BA350",
"2#	c #957742",
"3#	c #C6824D",
"4#	c #695F64",
"5#	c #2195D1",
"6#	c #8E6351",
"7#	c #C5844E",
"8#	c #878A48",
"9#	c #8B6C3C",
"0#	c #B26E3F",
"a#	c #635A5B",
"b#	c #2E97D1",
"c#	c #239FDF",
"d#	c #2295D0",
"e#	c #825A4B",
"f#	c #B06D3E",
"g#	c #868947",
"h#	c #876B39",
"i#	c #5B5743",
"j#	c #417EBF",
"k#	c #229DDF",
"l#	c #23ABD9",
"m#	c #23B3D6",
"n#	c #2494D0",
"o#	c #805A41",
"p#	c #898C48",
"q#	c #856B38",
"r#	c #626A37",
"s#	c #537DA4",
"t#	c #2D7AC0",
"u#	c #24A0DF",
"v#	c #2394DA",
"w#	c #3E83B0",
"x#	c #7E5A39",
"y#	c #BA7E47",
"z#	c #878D48",
"A#	c #979C52",
"B#	c #9D7342",
"C#	c #94AD56",
"D#	c #62A25E",
"E#	c #2E868F",
"F#	c #2887CD",
"G#	c #2480C1",
"H#	c #239AD8",
"I#	c #2298D5",
"J#	c #239DDB",
"K#	c #2193CE",
"L#	c #239CDA",
"M#	c #2294D1",
"N#	c #2295D4",
"O#	c #2591D9",
"P#	c #37869A",
"Q#	c #519665",
"R#	c #83874B",
"S#	c #9C7342",
"T#	c #A8B860",
"U#	c #A19C56",
"V#	c #BB8A55",
"W#	c #A3AD5C",
"X#	c #C3D790",
"Y#	c #58A756",
"Z#	c #42776D",
"`#	c #9D7C5F",
" $	c #71748D",
".$	c #2397D9",
"+$	c #249DDF",
"@$	c #2494D5",
"#$	c #817C83",
"$$	c #957C6D",
"%$	c #328CC5",
"&$	c #249CDF",
"*$	c #5482A8",
"=$	c #A28060",
"-$	c #5C81A4",
";$	c #249CDE",
">$	c #2D8FCA",
",$	c #91786A",
"'$	c #86776B",
")$	c #38868A",
"!$	c #4AA54C",
"~$	c #92B55B",
"{$	c #9E9653",
"]$	c #BA8C55",
"^$	c #A6B25F",
"/$	c #987A45",
"($	c #CA8750",
"_$	c #8B8648",
":$	c #BDD06E",
"<$	c #B8CC88",
"[$	c #657443",
"}$	c #C88951",
"|$	c #956647",
"1$	c #2C7D9D",
"2$	c #2F88B8",
"3$	c #2E7894",
"4$	c #A7744A",
"5$	c #C07F4C",
"6$	c #406787",
"7$	c #268DD2",
"8$	c #2E84AE",
"9$	c #6D6070",
"0$	c #CE8B52",
"a$	c #78676A",
"b$	c #2E84AD",
"c$	c #2F87B7",
"d$	c #396B90",
"e$	c #BB7B49",
"f$	c #AC7847",
"g$	c #5B993C",
"h$	c #7EB84F",
"i$	c #A9C062",
"j$	c #986F40",
"k$	c #C98951",
"l$	c #91914E",
"m$	c #896B3B",
"n$	c #896639",
"o$	c #8E8349",
"p$	c #8E844A",
"q$	c #8A6C3E",
"r$	c #B36E41",
"s$	c #9B6339",
"t$	c #6C6638",
"u$	c #706D44",
"v$	c #71693A",
"w$	c #A3663D",
"x$	c #B06C3F",
"y$	c #755B3D",
"z$	c #6F6951",
"A$	c #6E6E3F",
"B$	c #895C3C",
"C$	c #B67042",
"D$	c #8E613D",
"E$	c #70723A",
"F$	c #746F46",
"G$	c #786439",
"H$	c #AE6B3F",
"I$	c #A7683D",
"J$	c #837540",
"K$	c #8E8549",
"L$	c #887D45",
"M$	c #986338",
"N$	c #8C8D4A",
"O$	c #846837",
"P$	c #B26C3E",
"Q$	c #9E5E32",
"R$	c #A26439",
"S$	c #A36539",
"T$	c #A26236",
"U$	c #AF6A3C",
"V$	c #A36034",
"W$	c #A06236",
"X$	c #A26438",
"Y$	c #A96538",
"Z$	c #AD683B",
"`$	c #9D5E32",
" %	c #9F5D32",
".%	c #B16C3E",
"+%	c #A46236",
"@%	c #9D5E33",
"#%	c #AC673A",
"$%	c #AA6538",
"%%	c #A06237",
"&%	c #A26034",
"*%	c #AC683B",
"=%	c #8A8C49",
"-%	c #7F6534",
";%	c #A15D30",
">%	c #756A37",
",%	c #93A053",
"'%	c #94A154",
")%	c #76723B",
"!%	c #9E5A2E",
"~%	c #82552C",
"{%	c #89944D",
"]%	c #96A255",
"^%	c #858E4A",
"/%	c #875128",
"(%	c #9C5A2F",
"_%	c #7A7B40",
":%	c #95A254",
"<%	c #919D52",
"[%	c #786233",
"}%	c #A45E31",
"|%	c #775D30",
"1%	c #909D52",
"2%	c #95A255",
"3%	c #7C7F42",
"4%	c #97572D",
"5%	c #8B5029",
"6%	c #838B48",
"7%	c #8B964E",
"8%	c #7F552C",
"9%	c #898C49",
"0%	c #8A8E4A",
"a%	c #694121",
"b%	c #9EAC5A",
"c%	c #A5B55F",
"d%	c #6B4925",
"e%	c #838244",
"f%	c #7B743C",
"g%	c #6F542B",
"h%	c #ACBD64",
"i%	c #96A054",
"j%	c #693D1F",
"k%	c #929B51",
"l%	c #AFC165",
"m%	c #71592E",
"n%	c #786D38",
"o%	c #BED26F",
"p%	c #878847",
"q%	c #694323",
"r%	c #A2B05C",
"                                                                ",
"  . + @     # $ %   & * = -   ; >   , ' )   ! ~ { ]     ^ / (   ",
"( _ : <     [ } | 1 2 3 4 5 6 7 8 9 0 a b c d e f g   ( h i j   ",
"k l m n o p q r s t u v w x y z A B C D E F G H I J K L M N O   ",
"k P Q R S T U V W X Y Z `  ...+.@.#.$.%.&.*.=.-.;.>.,.'.).!.~.  ",
"k {.].^./.(._.:.<.[.}.|.1.2.3.4.5.6.7.8.9.0.a.b.c.d.e.f.g.h.i.  ",
"@ j.k.l.m.n.o.p.q.r.s.t.u.v.w.x.y.z.A.B.C.D.E.F.G.H.I.J.K.L.M.  ",
"  N.O.P.Q.R.S.T.U.V.W.X.Y.Z.`. +.+++@+#+$+%+&+*+=+-+;+>+,+'+)+  ",
"# !+~+{+]+^+/+(+_+:+<+[+}+|+1+2+3+4+5+6+7+8+9+0+a+b+c+d+e+f+g+  ",
"k h+i+j+k+l+m+n+o+p+q+r+s+t+u+v+w+x+y+z+A+B+C+D+E+F+G+H+I+J+K+  ",
"k P L+M+N+O+P+Q+R+S+T+U+V+W+X+T+Y+T+T+Z+`+ @.@+@@@#@$@%@&@*@=@  ",
"k -@;@>@,@'@)@!@~@T+T+T+S+S+{@T+T+T+T+T+T+T+]@S+^@/@(@_@:@<@[@  ",
"}@|@1@2@3@4@{@T+T+T+T+T+T+T+T+T+T+T+~@5@~@T+T+T+6@7@8@9@0@a@b@  ",
"  c@d@e@f@g@T+T+T+T+T+T+T+T+T+T+T+Y+h@i@W+]@T+T+T+T+j@k@l@m@n@  ",
"o@p@q@r@s@t@u@t+T+T+T+T+T+T+T+T+T+T+5@v@]@T+T+T+T+Y+{@w@x@y@z@  ",
"k A@B@C@D@]@]@E@T+T+~@F@G@E@T+T+T+T+5@H@]@T+T+T+E@S+]@I@J@K@L@  ",
"k M@N@O@P@T+T+T+T+T+]@Q@R@`+T+T+T+T+T+Y+T+T+T+T+{@S@t+T@U@V@W@  ",
"k X@;@Y@Z@T+T+T+T+T+T+Y+T+T+T+T+T+T+T+T+T+T+T+T+T+T+T+`@ #<@.#+#",
"@###h.$#%#T+T+T+T+T+T+T+T+T+T+T+T+T+T+T+T+T+T+T+T+T+T+&#*#=#-#;#",
"  >#,#'#)#T+T+T+T+T+T+T+T+T+T+T+T+T+T+T+Y+W+!#E@T+T+T+~#{#]#^#/#",
"(#_#:#<#D@T+T+T+~@`+S+]@T+T+T+T+T+]@6@E@]@E@]@T+T+T+T+[#}#|#1#  ",
"k 2#3#4#%#T+T+T+5@u@R@6@T+T+T+T+~@t+Q@F@v@T+T+T+T+T+T+5#6#7#8#  ",
"k 9#0#a#b#c#T+T+6@X+E@T+T+T+T+T+6@H@Y+T+T+E@~@T+~@E@~@d#e#f#g#  ",
"k h#;@i#j#k#T+T+S+l#E@T+T+T+T+T+T+T+T+T+]@i@l#Y+F@m#V+n#o#<@p#  ",
"@#q#<@r#s#t#+@u#T+Y+T+T+T+T+T+T+T+T+T+T+T+~@T+T+T+~@v#w#x#y#z#  ",
"] A#B#C#D#E#F#G#H#T+T+T+I#d#T+T+T+J#K#L#T+T+T+M#N#O#P#Q#R#S#T#  ",
"! U#V#W#X#Y#Z#`# $.$+$@$#$$$%$T+&$*$=$-$;$+$>$,$'$)$!$~${$]$^$  ",
"k /$($_$:$<$[$}$|$1$2$3$4$5$6$7$8$9$0$a$b$c$d$e$f$g$h$i$j$k$l$  ",
"k m$` n$o$p$q$r$s$t$u$v$w$x$y$z$A$B$C$D$E$F$G$H$I$J$K$L$M$x$N$  ",
"k O$P$Q$R$S$T$U$V$W$S$X$Y$Z$`$S$X$ %.%+%S$S$@%#%$%X$S$%%&%*%=%  ",
"k -%;%>%,%'%)%!%~%{%]%^%/%(%_%:%<%[%}%|%1%2%3%4%5%6%2%7%8%!%9%  ",
"! 0%a%b%    c%d%e%:$  ( f%g%h%    i%j%k%    l%m%n%@   o%p%q%r%  "};
