/* XPM */
static char * pond exit_32*32_xpm[] = {
"32 32 425 2",
"  	c #C0D470",
". 	c #BFD470",
"+ 	c #B6D16A",
"@ 	c #BAD26C",
"# 	c #BCD36D",
"$ 	c #B3D168",
"% 	c #ACD064",
"& 	c #AFCE67",
"* 	c #9ACC5A",
"= 	c #9FCD5D",
"- 	c #A1CB5F",
"; 	c #98C05C",
"> 	c #ADCF65",
", 	c #A3C362",
"' 	c #BAD36C",
") 	c #B9D26C",
"! 	c #BED46F",
"~ 	c #ACCF64",
"{ 	c #91BA59",
"] 	c #93C558",
"^ 	c #77AE4F",
"/ 	c #6DA753",
"( 	c #68AA4D",
"_ 	c #5AA845",
": 	c #38983F",
"< 	c #609B4D",
"[ 	c #49A540",
"} 	c #5AA149",
"| 	c #65A550",
"1 	c #76AB53",
"2 	c #8EC355",
"3 	c #98C65A",
"4 	c #95C858",
"5 	c #B7D26B",
"6 	c #AFD066",
"7 	c #82BD5A",
"8 	c #528C65",
"9 	c #5D8D65",
"0 	c #507D67",
"a 	c #7F8E9D",
"b 	c #6F7E8D",
"c 	c #717F8D",
"d 	c #6F7D8E",
"e 	c #707D8E",
"f 	c #6E7B8A",
"g 	c #71808F",
"h 	c #7A8898",
"i 	c #658282",
"j 	c #4E7F61",
"k 	c #558667",
"l 	c #5A9A5C",
"m 	c #73BB4C",
"n 	c #ABCF64",
"o 	c #BDD36E",
"p 	c #A8CB63",
"q 	c #84B074",
"r 	c #769191",
"s 	c #7E859C",
"t 	c #8288A2",
"u 	c #8187A0",
"v 	c #767E94",
"w 	c #7A8299",
"x 	c #788099",
"y 	c #80889F",
"z 	c #757D95",
"A 	c #7C849C",
"B 	c #767E95",
"C 	c #7D849C",
"D 	c #80859F",
"E 	c #878CA6",
"F 	c #737F92",
"G 	c #699785",
"H 	c #66A852",
"I 	c #A4CE5F",
"J 	c #A1C85F",
"K 	c #659F68",
"L 	c #9196AE",
"M 	c #878DA5",
"N 	c #7D859B",
"O 	c #737B8D",
"P 	c #7B8298",
"Q 	c #737C91",
"R 	c #8890AB",
"S 	c #79839C",
"T 	c #8891AC",
"U 	c #9AA2BE",
"V 	c #767F98",
"W 	c #888FAB",
"X 	c #7B849C",
"Y 	c #757D93",
"Z 	c #788094",
"` 	c #777F92",
" .	c #80879E",
"..	c #8F94AF",
"+.	c #79958F",
"@.	c #75B251",
"#.	c #A9CF62",
"$.	c #BFD46F",
"%.	c #BCD36E",
"&.	c #B0D066",
"*.	c #78A168",
"=.	c #697887",
"-.	c #7B8299",
";.	c #8E95AC",
">.	c #818EB1",
",.	c #687CAC",
"'.	c #6A7FB0",
").	c #5C7CC4",
"!.	c #416BC3",
"~.	c #3E69C0",
"{.	c #4375C8",
"].	c #4671C8",
"^.	c #3F73C5",
"/.	c #3F7AC8",
"(.	c #4875C6",
"_.	c #6D83BA",
":.	c #657BAB",
"<.	c #7183AF",
"[.	c #9097B1",
"}.	c #838AA1",
"|.	c #737A92",
"1.	c #638774",
"2.	c #7FBE51",
"3.	c #B8D36B",
"4.	c #81B257",
"5.	c #788892",
"6.	c #838AA2",
"7.	c #7988B0",
"8.	c #5A7DC6",
"9.	c #3E77CB",
"0.	c #2863C8",
"a.	c #286ECB",
"b.	c #2675C8",
"c.	c #2483CD",
"d.	c #247ECF",
"e.	c #2482CD",
"f.	c #247ACA",
"g.	c #247CCF",
"h.	c #2395DB",
"i.	c #2575CE",
"j.	c #2869CA",
"k.	c #277ED2",
"l.	c #2E6DCA",
"m.	c #4E81CD",
"n.	c #6A83BB",
"o.	c #828BA8",
"p.	c #8188A1",
"q.	c #599365",
"r.	c #92C956",
"s.	c #BAD36D",
"t.	c #9DC85E",
"u.	c #5B8C6C",
"v.	c #767D93",
"w.	c #7487B5",
"x.	c #3674CC",
"y.	c #238ED0",
"z.	c #21B1D2",
"A.	c #2590D6",
"B.	c #2683D4",
"C.	c #24A1D6",
"D.	c #23AAD9",
"E.	c #249AD8",
"F.	c #23A9D8",
"G.	c #23A9D9",
"H.	c #249BD9",
"I.	c #2498DC",
"J.	c #2498D3",
"K.	c #23B0D1",
"L.	c #249CD5",
"M.	c #258AD6",
"N.	c #238BD7",
"O.	c #2867C8",
"P.	c #597BC4",
"Q.	c #7B839E",
"R.	c #688185",
"S.	c #5DAA4C",
"T.	c #ADD065",
"U.	c #9ECD5C",
"V.	c #63A051",
"W.	c #758192",
"X.	c #7886AD",
"Y.	c #3978C8",
"Z.	c #22A0D0",
"`.	c #24A2DA",
" +	c #24A4DC",
".+	c #249FDE",
"++	c #249DDE",
"@+	c #23ACD9",
"#+	c #23ADD8",
"$+	c #23B0D7",
"%+	c #249EDE",
"&+	c #24A2DE",
"*+	c #23A6DB",
"=+	c #22B4D5",
"-+	c #23A8D9",
";+	c #2594D9",
">+	c #2588D4",
",+	c #2875CE",
"'+	c #5B7BB9",
")+	c #8389A4",
"!+	c #5C866D",
"~+	c #9CC65D",
"{+	c #9BC45D",
"]+	c #55856C",
"^+	c #6B7897",
"/+	c #3F80C9",
"(+	c #22A2D3",
"_+	c #23ACDA",
":+	c #24A0DE",
"<+	c #24A5DC",
"[+	c #24A2DD",
"}+	c #23B0D4",
"|+	c #2498D5",
"1+	c #2C7CD2",
"2+	c #5973AA",
"3+	c #6E7E89",
"4+	c #64AA4B",
"5+	c #AAD162",
"6+	c #B3D268",
"7+	c #71AD51",
"8+	c #6D8089",
"9+	c #688BAE",
"0+	c #25A4DA",
"a+	c #24A0DD",
"b+	c #23A7DB",
"c+	c #23AFD8",
"d+	c #21A2D9",
"e+	c #457BC1",
"f+	c #7A8099",
"g+	c #669765",
"h+	c #9FCD5C",
"i+	c #AFD166",
"j+	c #5EA04A",
"k+	c #717E8F",
"l+	c #5099C8",
"m+	c #23A6DC",
"n+	c #23A9DA",
"o+	c #22B7D4",
"p+	c #22B0D7",
"q+	c #3098CE",
"r+	c #7484AC",
"s+	c #628A66",
"t+	c #ABCD64",
"u+	c #B1D167",
"v+	c #7CB054",
"w+	c #6E8DA2",
"x+	c #339FDA",
"y+	c #22B2D6",
"z+	c #23B2D6",
"A+	c #23A8DA",
"B+	c #22AFD7",
"C+	c #5A99C8",
"D+	c #5C896B",
"E+	c #A7C962",
"F+	c #B4D268",
"G+	c #63AD4F",
"H+	c #648DA8",
"I+	c #279FDD",
"J+	c #24A1DD",
"K+	c #24A5DB",
"L+	c #24A3DC",
"M+	c #23AFD7",
"N+	c #22A1DF",
"O+	c #4596CB",
"P+	c #6E9B74",
"Q+	c #A2CD5E",
"R+	c #BFD56F",
"S+	c #80AA5A",
"T+	c #6D95AD",
"U+	c #2AA1DF",
"V+	c #22B5D5",
"W+	c #23AED8",
"X+	c #23B1D6",
"Y+	c #229FDE",
"Z+	c #51A1D4",
"`+	c #588B6D",
" @	c #8CC254",
".@	c #B6D26A",
"+@	c #69A94E",
"@@	c #658BA4",
"#@	c #289FDD",
"$@	c #229FDF",
"%@	c #4797CB",
"&@	c #59876F",
"*@	c #90C257",
"=@	c #BDD46E",
"-@	c #83B65D",
";@	c #5D859B",
">@	c #259CDA",
",@	c #23A0E0",
"'@	c #3C8CBE",
")@	c #719C76",
"!@	c #A3CD5F",
"~@	c #BED56F",
"{@	c #7EAB59",
"]@	c #668EA6",
"^@	c #29A0DE",
"/@	c #22B6D4",
"(@	c #4A9ACE",
"_@	c #67956D",
":@	c #88C84F",
"<@	c #A6CE60",
"[@	c #59A64E",
"}@	c #648BA5",
"|@	c #279EDC",
"1@	c #22A0DF",
"2@	c #4494C7",
"3@	c #608F75",
"4@	c #9EC65E",
"5@	c #B7D26A",
"6@	c #6FA759",
"7@	c #5D86A1",
"8@	c #259DDB",
"9@	c #4091C3",
"0@	c #628C78",
"a@	c #AEC967",
"b@	c #91BC61",
"c@	c #628193",
"d@	c #2E98D2",
"e@	c #239FDF",
"f@	c #4A88B4",
"g@	c #6A8D74",
"h@	c #B3CC69",
"i@	c #A8C765",
"j@	c #59816C",
"k@	c #417EC0",
"l@	c #229DDF",
"m@	c #23ABD9",
"n@	c #23B3D6",
"o@	c #279EDE",
"p@	c #5D8C96",
"q@	c #83B359",
"r@	c #6FA356",
"s@	c #537DA4",
"t@	c #2D7AC0",
"u@	c #24A0DF",
"v@	c #2394DA",
"w@	c #428CBC",
"x@	c #639675",
"y@	c #99C65B",
"z@	c #BBD36D",
"A@	c #ACCC65",
"B@	c #62A25E",
"C@	c #2E868F",
"D@	c #2887CE",
"E@	c #2789CF",
"F@	c #249FDF",
"G@	c #249CDE",
"H@	c #2591D9",
"I@	c #37869A",
"J@	c #519866",
"K@	c #A0BC67",
"L@	c #C3D790",
"M@	c #58A756",
"N@	c #2E877F",
"O@	c #2C80BD",
"P@	c #2495DE",
"Q@	c #249CDF",
"R@	c #249DDF",
"S@	c #249BDF",
"T@	c #239EE0",
"U@	c #2895CF",
"V@	c #3089B3",
"W@	c #398E92",
"X@	c #4AA54C",
"Y@	c #95B95D",
"Z@	c #BACE8A",
"`@	c #6FA35E",
" #	c #439670",
".#	c #338A9E",
"+#	c #328BAE",
"@#	c #2F88B9",
"##	c #338BAB",
"$#	c #2E8ABA",
"%#	c #278DD4",
"&#	c #2F87B7",
"*#	c #268ED3",
"=#	c #3089B4",
"-#	c #278CD2",
";#	c #2594D7",
">#	c #2893D1",
",#	c #308AB4",
"'#	c #2F88B8",
")#	c #2D89BC",
"!#	c #3F8E8E",
"~#	c #479C5B",
"{#	c #6AB547",
"]#	c #7FB94F",
"^#	c #B7D06B",
"/#	c #BCD16E",
"(#	c #9FC25F",
"_#	c #60A949",
":#	c #399C4A",
"<#	c #3F995F",
"[#	c #49A64B",
"}#	c #338284",
"|#	c #3D996C",
"1#	c #388F70",
"2#	c #3E8F82",
"3#	c #47A655",
"4#	c #388A83",
"5#	c #388597",
"6#	c #3B9377",
"7#	c #50AF45",
"8#	c #5BA166",
"9#	c #68AE5A",
"0#	c #9FC85E",
"a#	c #A8C963",
"b#	c #ACCD65",
"c#	c #B6CE6B",
"d#	c #A7C364",
"e#	c #A9C964",
"f#	c #A3C661",
"g#	c #80BB50",
"h#	c #A5CA61",
"i#	c #A8CA63",
"j#	c #86B454",
"k#	c #8BBE55",
"l#	c #6EAB54",
"m#	c #6EA75C",
"n#	c #69A849",
"o#	c #92C458",
"p#	c #B2CE69",
"q#	c #BFD36F",
"r#	c #BED36F",
"                                                                ",
"                              . +     .                         ",
"                    @ # $ % & * = - ; > , '   ) .               ",
"              ! ~ { ] ^ / ( _ : < [ } | 1 2 3 4 '               ",
"            5 6 7 8 9 0 a b c d e f g h i j k l m n o           ",
"          ! p q r s t u v w x w y z A B C D E F G H I o         ",
"        # J K L M N O P Q R S T U V W X Y Z `  ...+.@.#.$.      ",
"      %.&.*.=.-.;.>.,.'.).!.~.{.].^./.(._.:.<.[.}.|.1.2.~       ",
"      3.4.5.6.7.8.9.0.a.b.c.d.e.f.g.h.i.j.k.l.m.n.o.p.q.r.s.    ",
"  ! 5 t.u.v.w.x.y.z.A.B.C.D.E.F.G.H.I.J.K.L.M.N.O.P.Q.R.S.T.    ",
"  # U.V.W.X.Y.Z.`. +.+++@+#+$+.+%+.+.+&+*+=+-+;+>+,+'+)+!+~+    ",
"    {+]+^+/+(+_+:+.+.+.+ + +<+.+.+.+.+.+.+.+[+ +}+|+1+2+3+4+5+  ",
"  6+7+8+9+0+<+.+.+.+.+.+.+.+.+.+.+.+:+a+:+.+.+.+b+c+d+e+f+g+h+  ",
"  i+j+k+l+m+.+.+.+.+.+.+.+.+.+.+.+%+n+o+#+[+.+.+.+.+p+q+r+s+t+  ",
"  u+v+w+x+y+z+D..+.+.+.+.+.+.+.+.+.+a+A+[+.+.+.+.+%+<+B+C+D+E+  ",
"  F+G+H+I+[+[+J+.+.+:+K+L+J+.+.+.+.+a+M+[+.+.+.+J+ +[+N+O+P+Q+  ",
"  R+S+T+U+.+.+.+.+.+[+V+W+*+.+.+.+.+.+%+.+.+.+.+<+X+D.Y+Z+`+ @  ",
"  .@+@@@#@.+.+.+.+.+.+%+.+.+.+.+.+.+.+.+.+.+.+.+.+.+.+$@%@&@*@=@",
"  6 -@;@>@.+.+.+.+.+.+.+.+.+.+.+.+.+.+.+.+.+.+.+.+.+.+,@'@)@!@! ",
"  ~@{@]@^@.+.+.+.+.+.+.+.+.+.+.+.+.+.+.+%+#+/@J+.+.+.+$@(@_@:@# ",
"  <@[@}@|@.+.+.+:+*+ +[+.+.+.+.+.+[+b+J+[+J+[+.+.+.+.+1@2@3@4@  ",
"  5@6@7@8@.+.+.+a+z+W+b+.+.+.+.+:+D.V+K+A+.+.+.+.+.+.+,@9@0@a@  ",
"    b@c@d@e@.+.+b+$+J+.+.+.+.+.+b+M+%+.+.+J+:+.+:+J+:+.+f@g@h@  ",
"    i@j@k@l@.+.+ +m@J+.+.+.+.+.+.+.+.+.+[+o+m@%+K+n@@+o@p@q@!   ",
"    T.r@s@t@;+u@.+%+.+.+.+.+.+.+.+.+.+.+.+:+.+.+.+:+v@w@x@y@z@  ",
"    . A@B@C@D@E@F@.+.+.+.+.+.+.+.+.+.+.+.+.+.+++G@H@I@J@K@  .   ",
"        L@M@N@O@P@Q@R@S@G@:+Q@.+Q@:+:+.+R@R@T@U@V@W@X@Y@        ",
"          Z@`@ #.#+#@###$#%#&#*#=#-#;#>#,#'#)#!#~#{#]#^#        ",
"            /#(#_#:#<#[#}#|#1#2#3#4#5#6#7#8#9#0#a#b#' o         ",
"                c#d#e#f#g#h#i#j#k#l#m#n#o#p#5@                  ",
"                        .         q#$.r#                        ",
"                                                                "};
