/* XPM */
static char * rubber_duck_modified_xpm[] = {
"32 32 27 1",
" 	c #C0D470",
".	c #A4C263",
"+	c #000000",
"@	c #FBDF5A",
"#	c #FDC200",
"$	c #5D2503",
"%	c #6A5039",
"&	c #FFFFFF",
"*	c #F4E69C",
"=	c #ED9C22",
"-	c #B12E18",
";	c #EA981B",
">	c #690000",
",	c #FE3602",
"'	c #F36F1A",
")	c #FFA12E",
"!	c #390000",
"~	c #C93010",
"{	c #8D0000",
"]	c #D58205",
"^	c #B16800",
"/	c #AB0F0F",
"(	c #FEF089",
"_	c #FFFAA6",
":	c #FFD13A",
"<	c #FDCB00",
"[	c #E8EEAA",
"                                ",
"                                ",
"                  . .           ",
"         . .     ++.            ",
"          .     +@#$            ",
"                $@@#$+          ",
"               +#@@@@#$+        ",
"               $@@@@@@@@+       ",
"              +#%%@@####@+      ",
"              +@%%@######$. .   ",
"   . .       +#&*=--;;--->>.    ",
"    .        +@@@>,'--'))',+    ",
"             $###!,~,'{{{~'+    ",
"        +++++]^##]!,-{//~,>     ",
"     +++#@@@@@#]##]!{,~~,>      ",
"    +@@@@@@@@@@(]=##]!')'>      ",
"    +#@@@##@@@@@_(@@@#>>>       ",
"    +]#@#@@@@@@#@@@@@@@@]+      ",
"     $##]#:@((@@#@@@:###=+      ",
"     +:#]@:#####=@:######]+     ",
"     +]##]]@:##=:########=+     ",
"      $:###]]]=##########=+     ",
"      +]:################]+     ",
"       +]:##############<$      ",
"        +=@############<]+      ",
"         +$:@:######<<:]+       ",
"    [ [    ++$@@@::::]$+        ",
"     [        ++++++++          ",
"                                ",
"                                ",
"                                ",
"                                "};
