/* XPM */
static char * rubber_ducktopus_removebg_preview_xpm[] = {
"32 32 511 2",
"  	c #C0D470",
". 	c #1B0019",
"+ 	c #190019",
"@ 	c #130014",
"# 	c #31002F",
"$ 	c #B74EB7",
"% 	c #E265DD",
"& 	c #E966D6",
"* 	c #D16BC1",
"= 	c #180019",
"- 	c #A4C263",
"; 	c #140015",
"> 	c #1F0020",
", 	c #AC58AD",
"' 	c #D462D3",
") 	c #EA5BE8",
"! 	c #F555EB",
"~ 	c #F84FE0",
"{ 	c #F163DB",
"] 	c #300031",
"^ 	c #15001F",
"/ 	c #26001D",
"( 	c #CD67CD",
"_ 	c #EB69F1",
": 	c #EB58EE",
"< 	c #EF54ED",
"[ 	c #F962EF",
"} 	c #FF6FF9",
"| 	c #FF6DFD",
"1 	c #EE53DF",
"2 	c #C64BC8",
"3 	c #A857B3",
"4 	c #0E001B",
"5 	c #1B001C",
"6 	c #AD56A7",
"7 	c #D455DA",
"8 	c #E54DEE",
"9 	c #F351FC",
"0 	c #F45AFA",
"a 	c #E061E6",
"b 	c #F479F5",
"c 	c #FF78FF",
"d 	c #E958E5",
"e 	c #E961EF",
"f 	c #7C1B8C",
"g 	c #110023",
"h 	c #110022",
"i 	c #6A217A",
"j 	c #B24EC2",
"k 	c #BA4DCA",
"l 	c #CA55DA",
"m 	c #E763F4",
"n 	c #B947D2",
"o 	c #6B2798",
"p 	c #60228D",
"q 	c #AD4EC4",
"r 	c #DA6CE7",
"s 	c #C252D2",
"t 	c #AB55C0",
"u 	c #20023E",
"v 	c #150010",
"w 	c #893E81",
"x 	c #AF54A3",
"y 	c #AE599C",
"z 	c #AF54A1",
"A 	c #BB4CB5",
"B 	c #741B89",
"C 	c #987BD5",
"D 	c #D4C0FF",
"E 	c #E2A4FF",
"F 	c #AF59C6",
"G 	c #AA4DC0",
"H 	c #9F57BA",
"I 	c #130034",
"J 	c #1F0000",
"K 	c #410C00",
"L 	c #4A0E00",
"M 	c #470B00",
"N 	c #4B0100",
"O 	c #BD598F",
"P 	c #893B87",
"Q 	c #D2CDFF",
"R 	c #898FCB",
"S 	c #FFE9FF",
"T 	c #954FAF",
"U 	c #A156BD",
"V 	c #945AB1",
"W 	c #070025",
"X 	c #150000",
"Y 	c #8E6340",
"Z 	c #E6AE73",
"` 	c #FFDA90",
" .	c #FFE593",
"..	c #F5AB6E",
"+.	c #B04F46",
"@.	c #52071E",
"#.	c #C1B5D9",
"$.	c #F6F6FF",
"%.	c #DCB1FF",
"&.	c #9653B2",
"*.	c #9E53BA",
"=.	c #9157AB",
"-.	c #0A0020",
";.	c #0E0000",
">.	c #DAB281",
",.	c #A9571D",
"'.	c #BE5816",
").	c #B6540D",
"!.	c #DE7E31",
"~.	c #FFA952",
"{.	c #F4A773",
"].	c #35031C",
"^.	c #9A6CB4",
"/.	c #995AB5",
"(.	c #A051BC",
"_.	c #A546BC",
":.	c #A65BB8",
"<.	c #0D0017",
"[.	c #220000",
"}.	c #DE8949",
"|.	c #C25409",
"1.	c #CC5F0D",
"2.	c #C05B01",
"3.	c #B05A00",
"4.	c #F4A469",
"5.	c #55032B",
"6.	c #A14AAB",
"7.	c #AD49C5",
"8.	c #B74AC7",
"9.	c #460051",
"0.	c #160000",
"a.	c #EFB166",
"b.	c #D9831E",
"c.	c #B85700",
"d.	c #BE6000",
"e.	c #F4AA6D",
"f.	c #530304",
"g.	c #B9499D",
"h.	c #C849CE",
"i.	c #C843DA",
"j.	c #C242D5",
"k.	c #C04ECA",
"l.	c #350039",
"m.	c #2E002A",
"n.	c #220029",
"o.	c #0D0029",
"p.	c #240000",
"q.	c #F0AE62",
"r.	c #FFAB59",
"s.	c #FB9C64",
"t.	c #5F060A",
"u.	c #BE5695",
"v.	c #D046BF",
"w.	c #DF44E0",
"x.	c #EA4EF7",
"y.	c #EE59FB",
"z.	c #E260E6",
"A.	c #DB6BD9",
"B.	c #57004E",
"C.	c #74146B",
"D.	c #D15DC8",
"E.	c #D66CD8",
"F.	c #A25EB5",
"G.	c #140029",
"H.	c #200000",
"I.	c #530211",
"J.	c #600021",
"K.	c #D350AE",
"L.	c #EC57D7",
"M.	c #F44FF3",
"N.	c #FA59FF",
"O.	c #F050F8",
"P.	c #F557F4",
"Q.	c #EC58E4",
"R.	c #E85FD3",
"S.	c #F466DE",
"T.	c #FA58EC",
"U.	c #F457EE",
"V.	c #E25EE5",
"W.	c #AE57B5",
"X.	c #18001C",
"Y.	c #15001C",
"Z.	c #260027",
"`.	c #B450A8",
" +	c #E560D5",
".+	c #F658EB",
"++	c #FD52F6",
"@+	c #FE55F8",
"#+	c #FA53F8",
"$+	c #FA54FE",
"%+	c #F64EF9",
"&+	c #FE50FD",
"*+	c #FE54F3",
"=+	c #FF6EF3",
"-+	c #FF6DF5",
";+	c #FF50F9",
">+	c #FF4DFE",
",+	c #F353F1",
"'+	c #D86ADA",
")+	c #140013",
"!+	c #0E001C",
"~+	c #A459AE",
"{+	c #DB66DB",
"]+	c #F661F0",
"^+	c #F74FED",
"/+	c #FB4EF5",
"(+	c #FA4FF6",
"_+	c #FC5BF9",
":+	c #F353F3",
"<+	c #FB54FC",
"[+	c #FF51FF",
"}+	c #FF4FFF",
"|+	c #FF51F6",
"1+	c #FE6BF0",
"2+	c #FF76FE",
"3+	c #FA4EF8",
"4+	c #FD4EFF",
"5+	c #F055F9",
"6+	c #BE51C4",
"7+	c #2B0829",
"8+	c #0D0918",
"9+	c #9C69AC",
"0+	c #B953C3",
"a+	c #CD43D6",
"b+	c #F051F6",
"c+	c #F650FC",
"d+	c #FE5CFF",
"e+	c #D93FDD",
"f+	c #CA3BD1",
"g+	c #D546DC",
"h+	c #EF55F3",
"i+	c #F650F8",
"j+	c #F946F9",
"k+	c #FF55FC",
"l+	c #F160EB",
"m+	c #E85BE7",
"n+	c #ED50F7",
"o+	c #F957FF",
"p+	c #9C01A3",
"q+	c #8B138F",
"r+	c #230022",
"s+	c #1F0927",
"t+	c #9F55AA",
"u+	c #B648C5",
"v+	c #C343D8",
"w+	c #C642E3",
"x+	c #C543E1",
"y+	c #BD3FCE",
"z+	c #C54DD3",
"A+	c #C04FD5",
"B+	c #B947D0",
"C+	c #C649D5",
"D+	c #D94EE5",
"E+	c #F858FF",
"F+	c #F152F7",
"G+	c #ED5DF0",
"H+	c #E058E6",
"I+	c #DA52F0",
"J+	c #8E00A2",
"K+	c #D93EDA",
"L+	c #EC5BE4",
"M+	c #DD70DB",
"N+	c #29002B",
"O+	c #2C1030",
"P+	c #A441AE",
"Q+	c #B238BF",
"R+	c #C544DC",
"S+	c #C750EA",
"T+	c #B644DA",
"U+	c #B745D0",
"V+	c #BB49D2",
"W+	c #B443CF",
"X+	c #BA4BD6",
"Y+	c #B747CD",
"Z+	c #B63DC8",
"`+	c #C63FD9",
" @	c #CE41DE",
".@	c #C539CE",
"+@	c #CF46DA",
"@@	c #AE2BC5",
"#@	c #CA40DC",
"$@	c #F75CF6",
"%@	c #E94FE3",
"&@	c #E55FE6",
"*@	c #781C7F",
"=@	c #120019",
"-@	c #3B1043",
";@	c #DF5FE7",
">@	c #E155EA",
",@	c #B930C8",
"'@	c #C044D8",
")@	c #7F049A",
"!@	c #BD3BD9",
"~@	c #A019BD",
"{@	c #8A01A7",
"]@	c #9F1CBA",
"^@	c #BE49D5",
"/@	c #C456D9",
"(@	c #B547CE",
"_@	c #AA33C1",
":@	c #940AA5",
"<@	c #9303A1",
"[@	c #BC2FCB",
"}@	c #CA3AD7",
"|@	c #DB43E4",
"1@	c #F15DF9",
"2@	c #E561F2",
"3@	c #B659C3",
"4@	c #1D1028",
"5@	c #D26ADD",
"6@	c #E760EB",
"7@	c #EF68E9",
"8@	c #CD4ACA",
"9@	c #850B92",
"0@	c #C142D7",
"a@	c #E355F9",
"b@	c #ED56FF",
"c@	c #EA5CFF",
"d@	c #C848DB",
"e@	c #C14DD6",
"f@	c #821497",
"g@	c #C54FD9",
"h@	c #EA5AFA",
"i@	c #EB54F7",
"j@	c #E357EE",
"k@	c #AA26B0",
"l@	c #C347C3",
"m@	c #BA44BE",
"n@	c #C24ED3",
"o@	c #A64DB9",
"p@	c #19001C",
"q@	c #22102B",
"r@	c #B151BF",
"s@	c #BE4BC0",
"t@	c #BA4A9C",
"u@	c #972A7D",
"v@	c #7F0E84",
"w@	c #C949DA",
"x@	c #EE56F6",
"y@	c #F051F4",
"z@	c #DF49E9",
"A@	c #D544E1",
"B@	c #EB5AF7",
"C@	c #A216AD",
"D@	c #CA45D4",
"E@	c #E054E8",
"F@	c #FB5AFF",
"G@	c #F95CFF",
"H@	c #DF5AE9",
"I@	c #6F096F",
"J@	c #2E0011",
"K@	c #C88AB3",
"L@	c #AA55BD",
"M@	c #A852C1",
"N@	c #2B0027",
"O@	c #250018",
"P@	c #160024",
"Q@	c #642073",
"R@	c #B153C5",
"S@	c #B650B4",
"T@	c #DA7EAD",
"U@	c #FFADD9",
"V@	c #8F2B8B",
"W@	c #B944C6",
"X@	c #EB5DF1",
"Y@	c #F35DF4",
"Z@	c #E75AE6",
"`@	c #A11DA4",
" #	c #D053DD",
".#	c #820891",
"+#	c #C445CA",
"@#	c #D74EDC",
"##	c #EF55F5",
"$#	c #EA59F4",
"%#	c #D966E5",
"&#	c #30002E",
"*#	c #1B0000",
"=#	c #E1BEBC",
"-#	c #A661A2",
";#	c #AD57B2",
">#	c #B15BA6",
",#	c #D590C6",
"'#	c #12000E",
")#	c #070029",
"!#	c #A458BC",
"~#	c #B74FCC",
"{#	c #B048C3",
"]#	c #B555AF",
"^#	c #FFB2C8",
"/#	c #B06675",
"(#	c #310020",
"_#	c #B054B9",
":#	c #BA49CC",
"<#	c #C448CE",
"[#	c #C448B6",
"}#	c #BA51B0",
"|#	c #79348D",
"1#	c #23003F",
"2#	c #650D73",
"3#	c #B144BB",
"4#	c #BC48CD",
"5#	c #AB54BC",
"6#	c #230024",
"7#	c #937168",
"8#	c #C78495",
"9#	c #B25B86",
"0#	c #B755A0",
"a#	c #AD5DA4",
"b#	c #140010",
"c#	c #0A002E",
"d#	c #AD60C6",
"e#	c #B34CC2",
"f#	c #AF4FBA",
"g#	c #CF7EC1",
"h#	c #F2B5BD",
"i#	c #2F0000",
"j#	c #2C001C",
"k#	c #A455AE",
"l#	c #B250C7",
"m#	c #BC52C1",
"n#	c #E077B9",
"o#	c #D17EAA",
"p#	c #17001E",
"q#	c #250025",
"r#	c #B05BB0",
"s#	c #B64FC5",
"t#	c #B34FCB",
"u#	c #A85DBC",
"v#	c #1F0023",
"w#	c #180000",
"x#	c #F5C0BA",
"y#	c #FDBBC9",
"z#	c #CA7DB5",
"A#	c #9D5D99",
"B#	c #130011",
"C#	c #160025",
"D#	c #D79BDB",
"E#	c #A965A0",
"F#	c #F0B4D8",
"G#	c #956E6F",
"H#	c #190000",
"I#	c #220022",
"J#	c #A55CB6",
"K#	c #AC4DC1",
"L#	c #AF4DA4",
"M#	c #FFB7C0",
"N#	c #F8B7A3",
"O#	c #140000",
"P#	c #1D0000",
"Q#	c #C987AD",
"R#	c #AB4FB4",
"S#	c #B151CC",
"T#	c #A451BB",
"U#	c #25002D",
"V#	c #120000",
"W#	c #0F0007",
"X#	c #0A000B",
"Y#	c #1C0017",
"Z#	c #1B000C",
"`#	c #1A0008",
" $	c #0B0000",
".$	c #23002B",
"+$	c #A953B8",
"@$	c #B453BE",
"#$	c #BB5FA2",
"$$	c #FCAEA1",
"%$	c #AD774B",
"&$	c #130000",
"*$	c #56451D",
"=$	c #F6BEBF",
"-$	c #A9539C",
";$	c #B04EBD",
">$	c #A65BB0",
",$	c #1D000B",
"'$	c #212112",
")$	c #AE55B1",
"!$	c #BD48BD",
"~$	c #B851AD",
"{$	c #DB81B5",
"]$	c #FCB1AB",
"^$	c #A67058",
"/$	c #636C36",
"($	c #919A4E",
"_$	c #EDBA9B",
":$	c #DD87AC",
"<$	c #C45AB2",
"[$	c #B445BD",
"}$	c #AD4FB0",
"|$	c #ADB568",
"1$	c #3C4223",
"2$	c #AB5FAA",
"3$	c #EA87E4",
"4$	c #B15CA0",
"5$	c #F2ACD0",
"6$	c #AE7675",
"7$	c #8B984E",
"8$	c #BFD36F",
"9$	c #9D7552",
"0$	c #EEAAB9",
"a$	c #B9619D",
"b$	c #E587E7",
"c$	c #B866BA",
"d$	c #C0D471",
"e$	c #4B512B",
"f$	c #414229",
"g$	c #7D8848",
"h$	c #7D8847",
"i$	c #656D36",
"j$	c #433D28",
"k$	c #3D3131",
"l$	c #5C5C3F",
"                                                                ",
"                              . + @                             ",
"                          # $ % & * =   -                       ",
"                  - ; > , ' ) ! ~ { ] ^                         ",
"                  / ( _ : < [ } | 1 2 3 4                       ",
"                5 6 7 8 9 0 a b c d e f g                       ",
"              h i j k l m n o p q r s t u                       ",
"              v w x y z A B C D E F G H I                       ",
"              J K L M N O P Q R S T U V W                       ",
"            X Y Z `  ...+.@.#.$.%.&.*.=.-.          -   -       ",
"      -   - ;.>.,.'.).!.~.{.].^./.(._.:.<.            -         ",
"        -     [.}.|.1.2.3.4.5.6.G 7.8.9.                        ",
"              0.a.b.c.d.e.f.g.h.i.j.k.l.    m.n.o.              ",
"                p.q.r.s.t.u.v.w.x.y.z.A.B.C.D.E.F.G.            ",
"                  H.I.J.K.L.! M.N.O.P.Q.R.S.T.U.V.W.X.          ",
"                Y.Z.`. +.+++@+#+$+%+&+*+=+-+;+>+,+'+)+          ",
"              !+~+{+]+^+/+(+_+:+<+[+}+|+1+2+3+4+5+6+7+          ",
"            8+9+0+a+b+c+d+e+f+g+h+i+j+k+l+m+n+o+p+q+r+          ",
"            s+t+u+v+w+x+y+z+A+B+C+D+E+F+G+H+I+J+K+L+M+N+        ",
"            O+P+Q+R+S+T+U+V+W+X+Y+Z+`+ @.@+@@@#@$@%@&@*@=@      ",
"            -@;@>@,@'@)@!@~@{@]@^@/@(@_@:@<@[@}@|@1@2@3@=@      ",
"          4@5@6@7@8@9@0@a@b@b@c@d@e@f@g@h@i@j@k@l@m@n@o@p@      ",
"          q@r@s@t@u@v@w@x@y@z@A@B@C@D@E@F@G@H@I@J@K@L@M@N@O@    ",
"        P@Q@R@S@T@U@V@W@X@Y@Z@`@ #.#+#@###$#%#&#*#=#-#;#>#,#'#  ",
"      )#!#~#{#]#^#/#(#_#:#<#[#}#|#1#2#3#C+4#5#6#0.7#8#9#0#a#b#  ",
"      c#d#e#f#g#h#i#j#k#l#m#n#o#p#  q#r#s#t#u#v#  w#x#y#z#A#B#  ",
"        C#D#E#F#G#H#I#J#K#L#M#N#O#  P#Q#R#S#T#U#    V#V#W#X#    ",
"          Y#Z#`# $  .$+$@$#$$$%$&$  *$=$-$;$R@>$,$              ",
"                  '$)$!$~${$]$^$/$  ($_$:$<$[$}$|$              ",
"                  1$2$3$4$5$6$7$    8$9$0$a$b$c$d$              ",
"                    e$f$g$h$            i$j$k$l$                ",
"                                                                "};
