/* XPM */
static char * Wall_xpm[] = {
"32 32 40 1",
" 	c #C0D470",
".	c #564B4B",
"+	c #A4C263",
"@	c #94D471",
"#	c #8AC868",
"$	c #73AF52",
"%	c #69A44A",
"&	c #92CB73",
"*	c #7CBB5B",
"=	c #7CBC5B",
"-	c #D4D4D4",
";	c #86C763",
">	c #7EBD5C",
",	c #5E9C3E",
"'	c #5D973F",
")	c #EEEEEE",
"!	c #E8E8E8",
"~	c #E2E2E2",
"{	c #E3E3E3",
"]	c #79B858",
"^	c #E1E1E1",
"/	c #7BBA59",
"(	c #7DBB5B",
"_	c #91D16E",
":	c #7FBE5D",
"<	c #79B757",
"[	c #E8EEAA",
"}	c #7CBB5A",
"|	c #7AB959",
"1	c #6CAD4B",
"2	c #67A247",
"3	c #7FBF5D",
"4	c #75B254",
"5	c #71AD51",
"6	c #6CA74C",
"7	c #629D43",
"8	c #78B758",
"9	c #6DA94E",
"0	c #7BBA5A",
"a	c #65A046",
"                                ",
"                                ",
"       .....      + +           ",
"     ..@#$%%.      +            ",
"    .@@&**==%..                 ",
"   .--.....;>,'.                ",
"  .)!~{..--;.>]%.               ",
"  .))){..^-...;%'.              ",
"  .).).  ...;;;/%'.             ",
"   . .  .!-;;...],.       + +   ",
"   + + .))!-....;%.        +    ",
"    +  .).!..--;;;'.            ",
"        . . .^-..('.            ",
"             ..;;=,.+ + .       ",
"            .;;;.=%. + ._.      ",
"           .!-...*%.   .;.      ",
"          .)!!. .:%.   .;.      ",
"          .)!!!. .*'. .@%.      ",
"          .!.!.  .*'. .@%.      ",
"           . .   .*,..@%<.      ",
"            [    .*%..@%<.      ",
"                 .:%.@%<$.      ",
"                  .*.;%<$.      ",
"                  .}.;%<'.      ",
"                  .|1%<2.       ",
"                  .34%<'.       ",
"    [ [           .4567.        ",
"     [            .89''.        ",
"                  .0a..         ",
"                   .'.          ",
"                   .'.          ",
"                    .           "};
